<?xml version="1.0" standalone="no"?>
<!DOCTYPE svg PUBLIC "-//W3C//DTD SVG 20010904//EN"
 "http://www.w3.org/TR/2001/REC-SVG-20010904/DTD/svg10.dtd">
<svg version="1.0" xmlns="http://www.w3.org/2000/svg"
 width="4272.000000pt" height="2848.000000pt" viewBox="0 0 4272.000000 2848.000000"
 preserveAspectRatio="xMidYMid meet">

<g transform="translate(0.000000,2848.000000) scale(0.100000,-0.100000)"
fill="#000000" stroke="none">
<path d="M8630 17020 c0 -38 2 -40 30 -40 28 0 30 2 30 40 0 38 -2 40 -30 40
-28 0 -30 -2 -30 -40z"/>
<path d="M9150 14175 l0 -2185 285 0 285 0 2 1827 3 1828 969 -1828 970 -1827
398 0 398 0 0 2185 0 2185 -285 0 -285 0 0 -1827 c0 -1065 -4 -1823 -9 -1818
-5 6 -442 828 -972 1827 l-964 1818 -397 0 -398 0 0 -2185z"/>
<path d="M17300 15735 l0 -465 -200 0 -200 0 0 -210 0 -210 200 0 199 0 4
-1032 c4 -1095 3 -1070 52 -1258 22 -88 93 -234 143 -296 73 -93 223 -177 387
-218 168 -42 241 -48 658 -53 l407 -5 0 226 0 226 -337 0 c-354 0 -425 6 -536
40 -89 28 -155 89 -186 174 -49 132 -51 182 -51 1224 l0 972 555 0 555 0 0
210 0 210 -555 0 -555 0 0 465 0 465 -270 0 -270 0 0 -465z"/>
<path d="M14788 15340 c-379 -40 -688 -181 -929 -425 -321 -324 -473 -747
-472 -1315 0 -233 14 -356 58 -532 149 -589 581 -996 1192 -1123 448 -93 1034
-33 1538 158 l110 42 3 253 c1 138 1 252 -1 252 -3 0 -51 -22 -108 -49 -220
-102 -474 -180 -709 -217 -86 -14 -172 -18 -340 -18 -195 0 -239 3 -328 22
-356 78 -587 256 -733 567 -61 129 -100 287 -123 498 l-6 47 1241 0 1241 0 -5
258 c-3 164 -11 293 -21 357 -108 672 -503 1100 -1113 1210 -107 19 -376 27
-495 15z m457 -479 c104 -28 224 -88 303 -152 189 -153 313 -412 329 -686 l6
-103 -961 0 c-808 0 -962 2 -962 14 0 7 7 53 15 102 83 478 372 772 830 843
103 16 348 6 440 -18z"/>
<path d="M23470 12050 l0 -60 50 0 50 0 0 60 0 60 -50 0 -50 0 0 -60z"/>
</g>
</svg>
