<?xml version="1.0" standalone="no"?>
<!DOCTYPE svg PUBLIC "-//W3C//DTD SVG 20010904//EN"
 "http://www.w3.org/TR/2001/REC-SVG-20010904/DTD/svg10.dtd">
<svg version="1.0" xmlns="http://www.w3.org/2000/svg"
 width="4272.000000pt" height="2848.000000pt" viewBox="0 0 4272.000000 2848.000000"
 preserveAspectRatio="xMidYMid meet">

<g transform="translate(0.000000,2848.000000) scale(0.100000,-0.100000)"
fill="#000000" stroke="none">
<path d="M3120 14425 l0 -3545 640 0 640 0 2 2553 3 2553 1254 -2553 1255
-2553 823 0 823 0 0 3545 0 3545 -640 0 -640 0 -2 -2594 -3 -2594 -1260 2594
-1259 2594 -818 0 -818 0 0 -3545z"/>
<path d="M15520 16675 l0 -735 -262 -2 -263 -3 -3 -567 -2 -568 262 -2 263 -3
5 -1440 c5 -1297 7 -1449 23 -1530 34 -184 66 -284 133 -417 118 -235 309
-396 569 -482 195 -64 237 -68 753 -73 l472 -5 0 640 0 640 -202 4 c-187 4
-207 6 -251 27 -83 41 -137 129 -157 256 -7 47 -10 445 -8 1225 l3 1155 308 3
307 2 0 570 0 570 -310 0 -310 0 0 735 0 735 -665 0 -665 0 0 -735z"/>
<path d="M8630 17020 c0 -38 2 -40 30 -40 28 0 30 2 30 40 0 38 -2 40 -30 40
-28 0 -30 -2 -30 -40z"/>
<path d="M11825 15999 c-588 -51 -1090 -286 -1410 -659 -305 -355 -481 -828
-525 -1410 -18 -235 -8 -1138 14 -1290 77 -525 261 -925 569 -1234 399 -400
979 -605 1712 -606 431 0 818 94 1225 296 223 111 471 277 628 420 l42 39
-436 387 -437 387 -56 -43 c-189 -145 -450 -257 -706 -303 -123 -23 -387 -22
-514 1 -388 69 -656 285 -770 621 -31 92 -63 240 -53 250 3 3 703 5 1555 5
l1550 0 -6 373 c-3 238 -11 424 -21 517 -102 923 -415 1560 -951 1936 -100 70
-330 183 -455 224 -265 86 -611 118 -955 89z m513 -1230 c267 -68 457 -255
566 -557 29 -81 71 -278 82 -384 l6 -68 -951 0 -951 0 6 63 c11 123 36 254 65
342 120 363 403 583 804 625 112 12 282 2 373 -21z"/>
<path d="M230 11490 l0 -620 515 0 515 0 0 620 0 620 -515 0 -515 0 0 -620z"/>
</g>
</svg>
